<svg width="66" height="64" viewBox="0 0 66 64" fill="none" xmlns="http://www.w3.org/2000/svg">
<path d="M61.5173 12.2099V11.0926H63.4425V2.5765H56.0491V11.0926H57.1655V12.2099H56.0491H54.9326H50.2619V11.0926H54.9326V2.5765H53.2808H47.243H44.7709V11.0926H46.4228V12.2099H44.7709V20.7032H43.6545V19.8824H29.403V18.7651H43.6545V2.5765H34.894H26.6575H23.388V18.7537H26.1334V19.871H23.388H22.2715H19.7994V16.8271H22.2715V2.5765H15.4135H7.17702H2.50626V18.7537H14.8553H15.9717H16.8147V19.871H15.9717V20.6918H14.8553V19.871H2.51765V30.3024H14.8667V24.5338H15.9831V30.3024V31.4196H2.51765V51.188H7.18841H15.4249H23.3538V28.4099H20.0843V27.2927H23.3538H24.4702H43.6545V24.5452H44.7709V27.2927H45.8873V28.4099H44.7709H43.6545H24.4702V51.188H26.6689H34.9054H46.4342H51.3783V51.7352V52.0088V53.6961H46.4342H41.2166V60.5249H59.0566V53.6961H55.2174V51.188H63.4539V28.4099H51.6403V27.2927H63.4425V16.8613H65.9488V53.6961H63.4425H59.6034V60.5249V61.0722H59.0566H41.2052H40.6584V60.5249V53.6961H34.894H26.6575H15.4021H7.17702H2.50626H0V51.188V2.5765V0.0684052H2.50626H7.17702H15.4135H26.6689H34.9054H47.2544H53.2922H63.4425H65.9488V2.5765V12.7571H63.4425V12.2099H61.5173Z" fill="#29313C"/>
<path fill-rule="evenodd" clip-rule="evenodd" d="M63.5451 28.3983H60.3211H60.2527V37.7355H60.3211H60.3895V37.8723H63.4084V37.7355H63.5451V28.3983ZM63.4084 37.7355H60.3895V28.5351H63.4084V37.7355ZM63.4084 40.8934H60.3895V41.0302H60.2527V45.4588H63.5451V41.0302H63.4084V40.8934ZM63.4084 41.0302H60.3895V45.322H63.4084V41.0302ZM62.1666 40.0611C62.1666 39.9243 62.2236 39.8103 62.3033 39.7191C62.3945 39.6279 62.5084 39.5823 62.6451 39.5823C62.7818 39.5823 62.8957 39.6393 62.9868 39.7191C63.078 39.8103 63.1236 39.9243 63.1236 40.0611C63.1236 40.198 63.0666 40.312 62.9868 40.4032C62.8957 40.4944 62.7818 40.54 62.6451 40.54C62.5084 40.54 62.3945 40.483 62.3033 40.4032C62.2236 40.312 62.1666 40.198 62.1666 40.0611ZM62.3033 40.0611C62.3033 39.9699 62.3489 39.8787 62.4059 39.8217C62.4628 39.7533 62.554 39.7191 62.6451 39.7191C62.7362 39.7191 62.8274 39.7647 62.8843 39.8217C62.9527 39.8787 62.9869 39.9699 62.9869 40.0611C62.9869 40.1524 62.9413 40.2436 62.8843 40.3006C62.8274 40.369 62.7362 40.4032 62.6451 40.4032C62.554 40.4032 62.4628 40.3576 62.4059 40.3006C62.3375 40.2436 62.3033 40.1524 62.3033 40.0611ZM60.6743 40.0611C60.6743 39.9243 60.7312 39.8103 60.811 39.7191C60.9021 39.6279 61.016 39.5823 61.1527 39.5823C61.2894 39.5823 61.4033 39.6393 61.4945 39.7191C61.5856 39.8103 61.6312 39.9243 61.6312 40.0611C61.6312 40.198 61.5742 40.312 61.4945 40.4032C61.4033 40.4944 61.2894 40.54 61.1527 40.54C61.016 40.54 60.9021 40.483 60.811 40.4032C60.7312 40.312 60.6743 40.198 60.6743 40.0611ZM60.811 40.0611C60.811 39.9699 60.8565 39.8787 60.9135 39.8217C60.9705 39.7533 61.0616 39.7191 61.1527 39.7191C61.2439 39.7191 61.335 39.7647 61.392 39.8217C61.4603 39.8787 61.4945 39.9699 61.4945 40.0611C61.4945 40.1524 61.4489 40.2436 61.392 40.3006C61.335 40.369 61.2439 40.4032 61.1527 40.4032C61.0616 40.4032 60.9705 40.3576 60.9135 40.3006C60.8451 40.2436 60.811 40.1524 60.811 40.0611ZM62.1666 38.6931C62.1666 38.5563 62.2236 38.4423 62.3033 38.3511C62.3945 38.2599 62.5084 38.2143 62.6451 38.2143C62.7818 38.2143 62.8957 38.2713 62.9868 38.3511C63.078 38.4423 63.1236 38.5563 63.1236 38.6931C63.1236 38.8299 63.0666 38.9439 62.9868 39.0351C62.8957 39.1263 62.7818 39.1719 62.6451 39.1719C62.5084 39.1719 62.3945 39.1149 62.3033 39.0351C62.2236 38.9439 62.1666 38.8299 62.1666 38.6931ZM62.3033 38.6931C62.3033 38.6019 62.3489 38.5107 62.4059 38.4537C62.4628 38.3853 62.554 38.3511 62.6451 38.3511C62.7362 38.3511 62.8274 38.3967 62.8843 38.4537C62.9527 38.5107 62.9869 38.6019 62.9869 38.6931C62.9869 38.7843 62.9413 38.8755 62.8843 38.9325C62.8274 39.0009 62.7362 39.0351 62.6451 39.0351C62.554 39.0351 62.4628 38.9895 62.4059 38.9325C62.3375 38.8755 62.3033 38.7843 62.3033 38.6931ZM60.6743 38.6931C60.6743 38.5563 60.7312 38.4423 60.811 38.3511C60.9021 38.2599 61.016 38.2143 61.1527 38.2143C61.2894 38.2143 61.4033 38.2713 61.4945 38.3511C61.5856 38.4423 61.6312 38.5563 61.6312 38.6931C61.6312 38.8299 61.5742 38.9439 61.4945 39.0351C61.4033 39.1263 61.2894 39.1719 61.1527 39.1719C61.016 39.1719 60.9021 39.1149 60.811 39.0351C60.7312 38.9439 60.6743 38.8299 60.6743 38.6931ZM60.811 38.6931C60.811 38.6019 60.8565 38.5107 60.9135 38.4537C60.9705 38.3853 61.0616 38.3511 61.1527 38.3511C61.2439 38.3511 61.335 38.3967 61.392 38.4537C61.4603 38.5107 61.4945 38.6019 61.4945 38.6931C61.4945 38.7843 61.4489 38.8755 61.392 38.9325C61.335 39.0009 61.2439 39.0351 61.1527 39.0351C61.0616 39.0351 60.9705 38.9895 60.9135 38.9325C60.8451 38.8755 60.811 38.7843 60.811 38.6931Z" fill="#29313C"/>
<path fill-rule="evenodd" clip-rule="evenodd" d="M54.9355 6.12163H52.3723C52.0989 6.12163 51.8369 6.00762 51.6546 5.82522C51.4723 5.64281 51.3584 5.392 51.3584 5.10699C51.3584 4.83338 51.4723 4.57117 51.6546 4.38876C51.8369 4.20635 52.0875 4.09235 52.3723 4.09235H54.9355V6.05323V6.12163ZM51.7457 4.46856C51.5862 4.62817 51.4837 4.85618 51.4837 5.10699C51.4837 5.3578 51.5862 5.58581 51.7457 5.74541C51.9052 5.90502 52.1331 6.00762 52.3837 6.00762L53.8077 6.00762L54.833 6.00762V4.20635H52.3837C52.1331 4.20635 51.9052 4.30896 51.7457 4.46856ZM53.8077 6.00762H53.9216V4.20635H53.8077V6.00762Z" fill="#29313C"/>
<path fill-rule="evenodd" clip-rule="evenodd" d="M54.9355 6.90217H54.0014C53.5343 6.90217 53.1128 7.08457 52.8052 7.39238C52.4976 7.6888 52.304 8.09921 52.304 8.55523C52.304 9.01125 52.4976 9.42166 52.8052 9.71807C53.1128 10.0145 53.5343 10.1969 54.0014 10.1969H54.9355V6.90217ZM54.0014 10.0601C53.5685 10.0601 53.1811 9.88908 52.8963 9.61547C52.6115 9.34186 52.4407 8.96564 52.4407 8.53243C52.4407 8.11061 52.6115 7.7344 52.8963 7.46079C53.1811 7.18718 53.5685 7.01617 54.0014 7.01617H54.8102V10.0601H54.0014ZM54.2178 9.84348H53.9558C53.6027 9.84348 53.2837 9.70667 53.0444 9.47867C52.8166 9.25066 52.6685 8.94285 52.6685 8.60083V8.50963C52.6685 8.16762 52.8166 7.8598 53.0444 7.63179C53.2723 7.40379 53.5913 7.26698 53.9558 7.26698H54.2178V9.78648V9.84348ZM52.8052 8.50963C52.8052 8.20182 52.9419 7.92821 53.147 7.723C53.352 7.51779 53.6368 7.39239 53.9558 7.39239H54.0811V9.71807H53.9558C53.6482 9.71807 53.352 9.59267 53.147 9.38746C52.9305 9.19365 52.8052 8.90864 52.8052 8.60083V8.50963ZM53.8679 8.56821C53.8679 8.68184 53.7876 8.76264 53.6794 8.76264C53.5711 8.76264 53.4806 8.67076 53.4806 8.56821C53.4806 8.46565 53.5704 8.38151 53.6794 8.38151C53.7883 8.38151 53.8679 8.45457 53.8679 8.56821ZM53.6793 8.67371C53.6179 8.67371 53.5717 8.63339 53.5717 8.56821C53.5717 8.50302 53.6305 8.46439 53.6793 8.46439C53.7282 8.46439 53.787 8.50101 53.787 8.56821C53.787 8.63541 53.7408 8.67371 53.6793 8.67371Z" fill="#29313C"/>
<path fill-rule="evenodd" clip-rule="evenodd" d="M7.73523 30.3138V27.7487C7.73523 27.4751 7.84915 27.2129 8.03142 27.0305C8.2137 26.848 8.46432 26.734 8.74913 26.734C9.02254 26.734 9.28455 26.848 9.46683 27.0305C9.6491 27.2129 9.76302 27.4637 9.76302 27.7487V30.3138H7.80358H7.73523ZM9.38708 27.1217C9.22759 26.962 8.99975 26.8594 8.74913 26.8594C8.4985 26.8594 8.27066 26.962 8.11117 27.1217C7.95168 27.2813 7.84915 27.5093 7.84915 27.7601V29.1851H9.6491V27.7601C9.6491 27.5093 9.54657 27.2813 9.38708 27.1217ZM9.6491 29.2991H7.84915V30.2112H9.6491V29.2991Z" fill="#29313C"/>
<path fill-rule="evenodd" clip-rule="evenodd" d="M14.0009 30.3138V29.3789C14.0009 28.9115 13.8186 28.4897 13.511 28.1819C13.2148 27.8741 12.8047 27.6803 12.349 27.6803C11.8933 27.6803 11.4832 27.8741 11.187 28.1819C10.8908 28.4897 10.7086 28.9115 10.7086 29.3789V30.3138H14.0009ZM10.8453 29.3789C10.8453 28.9457 11.0161 28.5581 11.2896 28.2731C11.563 27.9881 11.9389 27.8171 12.3718 27.8171C12.7933 27.8171 13.1692 27.9881 13.4427 28.2731C13.7161 28.5581 13.8869 28.9457 13.8869 29.3789V30.1884H10.8453V29.3789ZM11.0617 29.5955V29.3333C11.0617 28.9799 11.1984 28.6607 11.4263 28.4213C11.6541 28.1933 11.9617 28.0451 12.3034 28.0451H12.3946C12.7363 28.0451 13.0439 28.1933 13.2718 28.4213C13.4996 28.6493 13.6363 28.9685 13.6363 29.3333V29.5955H11.1187H11.0617ZM12.3946 28.1819C12.7022 28.1819 12.9756 28.3187 13.1806 28.5239C13.3857 28.7291 13.511 29.0141 13.511 29.3333V29.4587H11.187V29.3333C11.187 29.0255 11.3123 28.7291 11.5174 28.5239C11.7111 28.3073 11.9959 28.1819 12.3035 28.1819H12.3946ZM12.3361 29.2454C12.2225 29.2454 12.1418 29.165 12.1418 29.0567C12.1418 28.9484 12.2336 28.8577 12.3361 28.8577C12.4385 28.8577 12.5226 28.9477 12.5226 29.0567C12.5226 29.1657 12.4496 29.2454 12.3361 29.2454ZM12.2306 29.0567C12.2306 28.9952 12.2709 28.9489 12.3361 28.9489C12.4012 28.9489 12.4398 29.0078 12.4398 29.0567C12.4398 29.1056 12.4032 29.1644 12.3361 29.1644C12.2689 29.1644 12.2306 29.1181 12.2306 29.0567Z" fill="#29313C"/>
<path fill-rule="evenodd" clip-rule="evenodd" d="M5.80995 19.8824H2.51764V19.928V26.9734H5.80995V19.8824ZM5.70742 19.9736V26.8822H2.60878V19.9736H5.70742ZM2.87079 25.4116V21.467C2.87079 21.1136 3.0075 20.8286 3.22395 20.6234C3.46318 20.4068 3.78216 20.2928 4.14671 20.2928C4.51125 20.2928 4.84162 20.4068 5.06947 20.6234C5.28592 20.8286 5.42262 21.1136 5.42262 21.467V25.4116C5.42262 25.765 5.28592 26.05 5.06947 26.2552C4.83023 26.4718 4.51125 26.5858 4.14671 26.5858C3.78216 26.5858 3.45179 26.4718 3.22395 26.2552C3.0075 26.05 2.87079 25.765 2.87079 25.4116ZM5.34288 25.4116C5.34288 25.7422 5.21756 26.0044 5.01251 26.1868C4.79606 26.3806 4.48847 26.4832 4.14671 26.4946C3.80495 26.4946 3.49736 26.3806 3.28091 26.1868C3.07585 25.993 2.95054 25.7422 2.95054 25.4116V21.467C2.95054 21.1364 3.07585 20.8742 3.28091 20.6918C3.49736 20.4866 3.80495 20.384 4.14671 20.384C4.48847 20.384 4.79606 20.498 5.01251 20.6918C5.21756 20.8856 5.34288 21.1364 5.34288 21.467V25.4116ZM4.14019 25.8606C4.02664 25.8606 3.9459 25.7803 3.9459 25.672C3.9459 25.5636 4.03771 25.473 4.14019 25.473C4.24268 25.473 4.32675 25.563 4.32675 25.672C4.32675 25.781 4.25375 25.8606 4.14019 25.8606ZM4.03477 25.672C4.03477 25.6105 4.07506 25.5642 4.14019 25.5642C4.20533 25.5642 4.24393 25.6231 4.24393 25.672C4.24393 25.7208 4.20734 25.7797 4.14019 25.7797C4.07304 25.7797 4.03477 25.7334 4.03477 25.672Z" fill="#29313C"/>
<path d="M46.4797 51.245H51.31V53.6391H46.4797V51.245Z" fill="white"/>
<path fill-rule="evenodd" clip-rule="evenodd" d="M46.4114 53.6961V51.188H51.3555V53.6961H46.4114ZM46.5253 53.5821H51.2416V51.302H46.5253V53.5821Z" fill="#171924"/>
<rect x="46.4228" y="51.9404" width="4.94416" height="0.136803" fill="#171924"/>
<path d="M26.7258 51.245H34.8484V53.6391H26.7258V51.245Z" fill="white"/>
<path fill-rule="evenodd" clip-rule="evenodd" d="M26.6575 53.6961V51.188H34.894V53.6961H26.6575ZM26.7714 53.5821H34.78V51.302H26.7714V53.5821Z" fill="#171924"/>
<rect x="26.6689" y="51.9404" width="8.23647" height="0.136803" fill="#171924"/>
<path d="M7.23395 51.245H15.3565V53.6391H7.23395V51.245Z" fill="white"/>
<path fill-rule="evenodd" clip-rule="evenodd" d="M7.177 53.6961V51.188H15.4135V53.6961H7.177ZM7.29092 53.5821H15.2996V51.302H7.29092V53.5821Z" fill="#171924"/>
<rect x="7.177" y="51.9404" width="8.23648" height="0.136803" fill="#171924"/>
<path d="M7.23395 0.125404H15.3565V2.5195H7.23395V0.125404Z" fill="white"/>
<path fill-rule="evenodd" clip-rule="evenodd" d="M7.177 2.5765V0.0684052H15.4135V2.5765H7.177ZM7.29092 2.4625H15.2996V0.182409H7.29092V2.4625Z" fill="#171924"/>
<rect x="7.177" y="1.68727" width="8.23648" height="0.136805" fill="#171924"/>
<path d="M26.7258 0.125404H34.8484V2.5195H26.7258V0.125404Z" fill="white"/>
<path fill-rule="evenodd" clip-rule="evenodd" d="M26.6575 2.5765V0.0684052H34.894V2.5765H26.6575ZM26.7714 2.4625H34.78V0.182409H26.7714V2.4625Z" fill="#171924"/>
<rect x="26.6689" y="1.68726" width="8.23647" height="0.136805" fill="#171924"/>
<path d="M47.2999 0.125404H53.2238V2.5195H47.2999L47.2999 0.125404Z" fill="white"/>
<path fill-rule="evenodd" clip-rule="evenodd" d="M47.243 2.5765V0.0684052H53.2808V2.5765H47.243ZM47.3569 2.4625H53.1669V0.182409H47.3569V2.4625Z" fill="#171924"/>
<rect x="47.243" y="1.68726" width="6.03781" height="0.136805" fill="#171924"/>
<path opacity="0.2" d="M8.2714 58.4155C9.22423 59.8668 8.67146 61.7458 7.04551 62.5856C5.42391 63.4377 3.32372 62.9424 2.3834 61.4854C1.42661 60.0279 1.984 58.1608 3.61294 57.3188C5.23439 56.4675 7.33247 56.9606 8.2714 58.4155Z" fill="#0B1739" fill-opacity="0.2"/>
<path fill-rule="evenodd" clip-rule="evenodd" d="M5.69767 60.6144L2.94395 61.0596L4.76387 59.1841L7.51046 58.7281L5.69767 60.6144ZM4.97311 59.5081L3.65706 60.7138L5.50309 60.2941L4.97311 59.5081Z" fill="#0B1739"/>
<path fill-rule="evenodd" clip-rule="evenodd" d="M0.721694 63.0411C0.58533 63.0411 0.462155 63.0147 0.352164 62.9619C0.242172 62.9091 0.155981 62.8361 0.0935887 62.743C0.0311959 62.6498 0 62.5448 0 62.4278C0 62.3108 0.0315175 62.2058 0.0945535 62.1127C0.157589 62.0195 0.244102 61.9466 0.354093 61.8937C0.464085 61.8409 0.58726 61.8145 0.723624 61.8145C0.834258 61.8145 0.935243 61.8316 1.02658 61.8656C1.11792 61.8997 1.1951 61.9491 1.25814 62.0138L1.09605 62.1484C0.998279 62.0553 0.877997 62.0087 0.735202 62.0087C0.642577 62.0087 0.559603 62.0266 0.486275 62.0624C0.412948 62.0982 0.355701 62.1479 0.314535 62.2115C0.273369 62.2751 0.252786 62.3472 0.252786 62.4278C0.252786 62.5084 0.273369 62.5806 0.314535 62.6442C0.355701 62.7078 0.412948 62.7574 0.486275 62.7932C0.559603 62.829 0.642577 62.8469 0.735202 62.8469C0.877997 62.8469 0.998279 62.7998 1.09605 62.7055L1.25814 62.8418C1.1951 62.9065 1.1176 62.9559 1.02562 62.99C0.933635 63.0241 0.832329 63.0411 0.721694 63.0411Z" fill="#0B1739"/>
<path fill-rule="evenodd" clip-rule="evenodd" d="M10.4301 56.9032C10.5626 56.9032 10.6819 56.9296 10.788 56.9824C10.8941 57.0353 10.9774 57.1082 11.0379 57.2014C11.0984 57.2945 11.1286 57.3995 11.1286 57.5165C11.1286 57.6335 11.0984 57.7385 11.0379 57.8317C10.9774 57.9248 10.8941 57.9978 10.788 58.0506C10.6819 58.1034 10.5626 58.1298 10.4301 58.1298C10.3091 58.1298 10.1988 58.1076 10.0991 58.0633C9.99942 58.0191 9.91774 57.9572 9.85406 57.8777C9.79038 57.7982 9.75082 57.7079 9.73538 57.6068H9.52312V58.1128H9.27612V56.9203H9.52312V57.4092H9.73924C9.75725 57.3104 9.7981 57.2226 9.86178 57.146C9.92545 57.0693 10.0065 57.0097 10.1049 56.9671C10.2033 56.9245 10.3117 56.9032 10.4301 56.9032ZM10.4301 57.9356C10.5137 57.9356 10.5896 57.918 10.6578 57.8828C10.726 57.8476 10.7794 57.7982 10.818 57.7346C10.8566 57.671 10.8759 57.5983 10.8759 57.5165C10.8759 57.4347 10.8566 57.3621 10.818 57.2985C10.7794 57.2349 10.726 57.1855 10.6578 57.1502C10.5896 57.115 10.5137 57.0974 10.4301 57.0974C10.3465 57.0974 10.2709 57.115 10.2034 57.1502C10.1358 57.1855 10.0824 57.2349 10.0432 57.2985C10.004 57.3621 9.98435 57.4347 9.98435 57.5165C9.98435 57.5983 10.004 57.671 10.0432 57.7346C10.0824 57.7982 10.1358 57.8476 10.2034 57.8828C10.2709 57.918 10.3465 57.9356 10.4301 57.9356Z" fill="#0B1739"/>
<path d="M53.3117 57.8142H54.2153V57.9869L53.7073 59.2198H53.5025L54.0145 57.9869H53.3117V57.8142ZM54.4406 59.0089H54.6455L54.4868 59.521H54.3443L54.4406 59.0089ZM55.416 59.2359C55.3424 59.2359 55.2755 59.2238 55.2152 59.1997C55.1563 59.1756 55.1061 59.1375 55.0646 59.0852C55.0231 59.0317 54.991 58.9634 54.9683 58.8804C54.9455 58.7961 54.9341 58.6944 54.9341 58.5752V58.4587C54.9341 58.3409 54.9455 58.2405 54.9683 58.1575C54.991 58.0732 55.0231 58.0049 55.0646 57.9527C55.1075 57.8992 55.1583 57.8603 55.2172 57.8363C55.2775 57.8108 55.3438 57.7981 55.416 57.7981C55.4897 57.7981 55.5559 57.8101 55.6148 57.8342C55.6751 57.8583 55.726 57.8972 55.7674 57.9507C55.8089 58.0029 55.8411 58.0712 55.8638 58.1555C55.8866 58.2385 55.898 58.3396 55.898 58.4587V58.5752C55.898 58.693 55.8866 58.7941 55.8638 58.8784C55.8411 58.9614 55.8083 59.0297 55.7654 59.0832C55.7239 59.1355 55.6731 59.1743 55.6128 59.1997C55.5539 59.2238 55.4883 59.2359 55.416 59.2359ZM55.416 59.0551C55.4602 59.0551 55.4997 59.0478 55.5345 59.033C55.5707 59.017 55.6008 58.9909 55.6249 58.9547C55.649 58.9172 55.6677 58.8677 55.6811 58.8061C55.6945 58.7446 55.7012 58.6676 55.7012 58.5752V58.4587C55.7012 58.3664 55.6945 58.2901 55.6811 58.2298C55.6677 58.1682 55.6483 58.1187 55.6229 58.0812C55.5988 58.0438 55.5687 58.0176 55.5325 58.0029C55.4977 57.9869 55.4589 57.9788 55.416 57.9788C55.3719 57.9788 55.3317 57.9869 55.2956 58.0029C55.2608 58.0176 55.2313 58.0438 55.2072 58.0812C55.1831 58.1174 55.1644 58.1662 55.151 58.2278C55.1376 58.2894 55.1309 58.3664 55.1309 58.4587V58.5752C55.1309 58.6676 55.1376 58.7446 55.151 58.8061C55.1644 58.8664 55.1831 58.9152 55.2072 58.9527C55.2326 58.9902 55.2628 59.017 55.2976 59.033C55.3337 59.0478 55.3732 59.0551 55.416 59.0551ZM56.097 58.017L56.3901 57.8142H56.5789V59.2198H56.3901V58.023L56.097 58.2218V58.017Z" fill="#29313C"/>
<path d="M34.3413 44.5029V41.8523L34.514 42.0411H33.7068V41.6917H34.7389V44.5029H34.3413ZM35.883 44.5029V41.8523L36.0557 42.0411H35.2484V41.6917H36.2806V44.5029H35.883ZM38.0471 44.5351C37.8195 44.5351 37.6227 44.5016 37.4567 44.4347C37.2908 44.3677 37.1622 44.2727 37.0712 44.1495C36.9802 44.0237 36.9347 43.8764 36.9347 43.7077C36.9347 43.5418 36.9775 43.4012 37.0632 43.2861C37.1515 43.1683 37.2787 43.0799 37.4447 43.021C37.6107 42.9594 37.8115 42.9286 38.0471 42.9286C38.2827 42.9286 38.4835 42.9594 38.6495 43.021C38.8182 43.0799 38.9467 43.1683 39.0351 43.2861C39.1234 43.4039 39.1676 43.5444 39.1676 43.7077C39.1676 43.8764 39.1221 44.0237 39.031 44.1495C38.94 44.2727 38.8102 44.3677 38.6415 44.4347C38.4728 44.5016 38.2747 44.5351 38.0471 44.5351ZM38.0471 44.2098C38.272 44.2098 38.4474 44.1642 38.5732 44.0732C38.7017 43.9795 38.766 43.8537 38.766 43.6957C38.766 43.5404 38.7017 43.4186 38.5732 43.3302C38.4474 43.2392 38.272 43.1937 38.0471 43.1937C37.8249 43.1937 37.6509 43.2392 37.525 43.3302C37.3992 43.4186 37.3363 43.5404 37.3363 43.6957C37.3363 43.8537 37.3992 43.9795 37.525 44.0732C37.6509 44.1642 37.8249 44.2098 38.0471 44.2098ZM38.0471 43.1455C37.8329 43.1455 37.6509 43.1174 37.5009 43.0612C37.351 43.0023 37.2359 42.9193 37.1555 42.8122C37.0752 42.7024 37.0351 42.5725 37.0351 42.4226C37.0351 42.2646 37.0766 42.1294 37.1596 42.017C37.2452 41.9019 37.3644 41.8135 37.517 41.7519C37.6696 41.6903 37.8463 41.6596 38.0471 41.6596C38.2506 41.6596 38.4286 41.6903 38.5812 41.7519C38.7339 41.8135 38.853 41.9019 38.9387 42.017C39.0244 42.1294 39.0672 42.2646 39.0672 42.4226C39.0672 42.5725 39.027 42.7024 38.9467 42.8122C38.8664 42.9193 38.7499 43.0023 38.5973 43.0612C38.4447 43.1174 38.2613 43.1455 38.0471 43.1455ZM38.0471 42.8885C38.2426 42.8885 38.3952 42.8483 38.5049 42.768C38.6174 42.6877 38.6736 42.5779 38.6736 42.4387C38.6736 42.2968 38.6161 42.1857 38.5009 42.1053C38.3858 42.025 38.2345 41.9849 38.0471 41.9849C37.8597 41.9849 37.7098 42.025 37.5973 42.1053C37.4875 42.1857 37.4327 42.2968 37.4327 42.4387C37.4327 42.5779 37.4862 42.6877 37.5933 42.768C37.7031 42.8483 37.8543 42.8885 38.0471 42.8885ZM39.6498 45.0973L39.8506 44.2861L39.9028 44.519C39.8252 44.519 39.7596 44.4949 39.706 44.4467C39.6552 44.3985 39.6297 44.3329 39.6297 44.2499C39.6297 44.1696 39.6552 44.104 39.706 44.0531C39.7596 44.0023 39.8238 43.9768 39.8988 43.9768C39.9764 43.9768 40.0394 44.0036 40.0876 44.0571C40.1357 44.108 40.1598 44.1723 40.1598 44.2499C40.1598 44.2767 40.1572 44.3035 40.1518 44.3302C40.1491 44.3543 40.1424 44.3838 40.1317 44.4186C40.1237 44.4507 40.1103 44.4909 40.0916 44.5391L39.9028 45.0973H39.6498ZM41.0177 44.5029V41.8523L41.1904 42.0411H40.3832V41.6917H41.4153V44.5029H41.0177ZM42.5594 44.5029V41.8523L42.7321 42.0411H41.9248V41.6917H42.957V44.5029H42.5594Z" fill="#0B1739"/>
<path d="M36.2502 36.4889V36.3663H34.3236L34.3138 37.234H34.4314L34.5197 36.9938C34.5654 36.8762 34.6373 36.8092 34.7354 36.7928C34.7746 36.7863 34.8301 36.783 34.902 36.783H35.6864L34.8285 37.7733L34.9462 37.8714C35.0638 37.8223 35.1766 37.7978 35.2844 37.7978C35.5296 37.7978 35.6897 37.9302 35.7649 38.1949C35.7877 38.2832 35.7992 38.3796 35.7992 38.4842C35.7796 38.9907 35.5508 39.2506 35.1128 39.2636C34.9298 39.2636 34.8203 39.1836 34.7844 39.0234C34.7746 38.9875 34.7664 38.9286 34.7599 38.8469C34.7468 38.6835 34.7141 38.5789 34.6618 38.5332C34.6161 38.4972 34.5556 38.4793 34.4804 38.4793C34.3268 38.4793 34.2337 38.5463 34.201 38.6803C34.1945 38.7097 34.1912 38.7391 34.1912 38.7685C34.1912 39.0136 34.3366 39.1917 34.6275 39.3029C34.7877 39.3617 34.9674 39.3911 35.1668 39.3911C35.6113 39.3911 35.9446 39.2522 36.1669 38.9744C36.2976 38.8077 36.363 38.6214 36.363 38.4155C36.363 38.141 36.2502 37.9318 36.0247 37.788C35.8678 37.69 35.6766 37.6409 35.4511 37.6409C35.3367 37.6409 35.2305 37.6524 35.1325 37.6753L36.2502 36.4889ZM38.7674 36.2579H39.5907L38.5064 37.5732L39.6861 38.9989H38.8377L37.7182 37.6083V38.9989H36.9702V36.2579H37.7182V37.5883L38.7674 36.2579Z" fill="#0B1739"/>
<path fill-rule="evenodd" clip-rule="evenodd" d="M63.4819 25.0666H51.6868V27.3212H63.4819V25.0666ZM51.8193 27.1886V25.1992H63.3494V27.1886H51.8193Z" fill="#29313C"/>
<path d="M52.8795 26.2602V26.1276H62.4217V26.2602H52.8795Z" fill="#29313C"/>
<path d="M53.2771 25.5971H53.4096V26.9233H53.2771V25.5971Z" fill="#29313C"/>
<path d="M53.8073 25.5971H53.9398V26.9233H53.8073V25.5971Z" fill="#29313C"/>
<path d="M54.4699 25.5971H54.6024V26.9233H54.4699V25.5971Z" fill="#29313C"/>
<path d="M56.0602 25.5971H56.1928V26.9233H56.0602V25.5971Z" fill="#29313C"/>
<path d="M56.988 25.5971H57.1205V26.9233H56.988V25.5971Z" fill="#29313C"/>
<path d="M59.9036 25.5971H60.0362V26.9233H59.9036V25.5971Z" fill="#29313C"/>
<path d="M57.5181 25.5971H57.6506V26.9233H57.5181V25.5971Z" fill="#29313C"/>
<path d="M60.4338 25.5971H60.5663V26.9233H60.4338V25.5971Z" fill="#29313C"/>
<path d="M58.1807 25.5971H58.3133V26.9233H58.1807V25.5971Z" fill="#29313C"/>
<path d="M61.0964 25.5971H61.2289V26.9233H61.0964V25.5971Z" fill="#29313C"/>
<path d="M61.759 25.5971H61.8916V26.9233H61.759V25.5971Z" fill="#29313C"/>
<path d="M55.184 25.6826L55.3121 25.6486L55.662 26.9705L55.5339 27.0044L55.184 25.6826Z" fill="#29313C"/>
<path d="M59.3729 25.6826L59.2448 25.6486L58.8949 26.9705L59.023 27.0044L59.3729 25.6826Z" fill="#29313C"/>
<path fill-rule="evenodd" clip-rule="evenodd" d="M21.275 28.2277V40.0315H23.528V28.2277H21.275ZM23.3954 28.3603V39.8989H21.4075V28.3603H23.3954Z" fill="#29313C"/>
<path d="M22.4677 38.8378H22.3352V29.2887H22.4677L22.4677 38.8378Z" fill="#29313C"/>
<path d="M21.8051 38.44V38.3073H23.1304V38.44H21.8051Z" fill="#29313C"/>
<path d="M21.8051 37.9094V37.7768H23.1304V37.9094H21.8051Z" fill="#29313C"/>
<path d="M21.8051 37.2463V37.1137H23.1304V37.2463H21.8051Z" fill="#29313C"/>
<path d="M21.8051 35.6548V35.5222H23.1304V35.6548H21.8051Z" fill="#29313C"/>
<path d="M21.8051 34.7264V34.5938H23.1304V34.7264H21.8051Z" fill="#29313C"/>
<path d="M21.8051 31.8086V31.676H23.1304V31.8086H21.8051Z" fill="#29313C"/>
<path d="M21.8051 34.1959V34.0633H23.1304V34.1959H21.8051Z" fill="#29313C"/>
<path d="M21.8051 31.2781V31.1455H23.1304V31.2781H21.8051Z" fill="#29313C"/>
<path d="M21.8051 33.5327V33.4001H23.1304V33.5327H21.8051Z" fill="#29313C"/>
<path d="M21.8051 30.6149V30.4823H23.1304V30.6149H21.8051Z" fill="#29313C"/>
<path d="M21.8051 29.9518V29.8192H23.1304V29.9518H21.8051Z" fill="#29313C"/>
<path d="M21.8905 36.5316L21.8566 36.4034L23.1775 36.0533L23.2114 36.1815L21.8905 36.5316Z" fill="#29313C"/>
<path d="M23.1775 32.8181L23.2114 32.6899L21.8905 32.3397L21.8566 32.4679L23.1775 32.8181Z" fill="#29313C"/>
<path fill-rule="evenodd" clip-rule="evenodd" d="M23.3253 11.6712V18.8331H25.5783V11.6712H23.3253ZM25.4458 18.7004H23.4578V11.8038H25.4458V18.7004Z" fill="#29313C"/>
<path d="M24.5181 18.3026H24.3856V12.467H24.5181L24.5181 18.3026Z" fill="#29313C"/>
<path d="M23.8554 17.9047V17.7721H25.1807V17.9047H23.8554Z" fill="#29313C"/>
<path d="M23.8554 17.3742V17.2415H25.1807V17.3742H23.8554Z" fill="#29313C"/>
<path d="M23.8554 16.711V16.5784H25.1807V16.711H23.8554Z" fill="#29313C"/>
<path d="M23.8554 15.1195V14.9869H25.1807V15.1195H23.8554Z" fill="#29313C"/>
<path d="M23.8554 14.1911V14.0585H25.1807V14.1911H23.8554Z" fill="#29313C"/>
<path d="M23.8554 13.6606V13.528H25.1807V13.6606H23.8554Z" fill="#29313C"/>
<path d="M23.8554 12.9975V12.8648H25.1807V12.9975H23.8554Z" fill="#29313C"/>
<path d="M23.9409 15.9964L23.9069 15.8682L25.2278 15.518L25.2617 15.6462L23.9409 15.9964Z" fill="#29313C"/>
<path fill-rule="evenodd" clip-rule="evenodd" d="M2.51806 18.8331H9.67468V16.5784H2.51806V18.8331ZM9.54215 16.711V18.7004H2.65059V16.711H9.54215Z" fill="#29313C"/>
<path d="M9.14459 17.6394V17.7721H3.31327V17.6394L9.14459 17.6394Z" fill="#29313C"/>
<path d="M8.74701 18.3026H8.61448V16.9763H8.74701V18.3026Z" fill="#29313C"/>
<path d="M8.21686 18.3026H8.08433V16.9763H8.21686V18.3026Z" fill="#29313C"/>
<path d="M7.5542 18.3026H7.42167V16.9763H7.5542V18.3026Z" fill="#29313C"/>
<path d="M5.96387 18.3026H5.83134V16.9763H5.96387V18.3026Z" fill="#29313C"/>
<path d="M5.03613 18.3026H4.9036V16.9763H5.03613V18.3026Z" fill="#29313C"/>
<path d="M4.50604 18.3026H4.37351V16.9763H4.50604V18.3026Z" fill="#29313C"/>
<path d="M3.84338 18.3026H3.71085V16.9763H3.84338V18.3026Z" fill="#29313C"/>
<path d="M6.84009 18.2171L6.71198 18.251L6.36206 16.9292L6.49017 16.8952L6.84009 18.2171Z" fill="#29313C"/>
<path fill-rule="evenodd" clip-rule="evenodd" d="M55.9277 4.77458L63.6144 4.77458V2.51992L55.9277 2.51992V4.77458ZM63.4819 2.65255V4.64195L56.0602 4.64195V2.65255L63.4819 2.65255Z" fill="#29313C"/>
<path d="M62.5542 3.58093V3.71356L56.7229 3.71356V3.58093L62.5542 3.58093Z" fill="#29313C"/>
<path d="M62.1566 4.24407H62.0241V2.9178H62.1566V4.24407Z" fill="#29313C"/>
<path d="M61.6265 4.24407H61.494V2.9178H61.6265V4.24407Z" fill="#29313C"/>
<path d="M60.9639 4.24407H60.8313V2.9178H60.9639V4.24407Z" fill="#29313C"/>
<path d="M59.3735 4.24407H59.2409V2.9178H59.3735V4.24407Z" fill="#29313C"/>
<path d="M58.4458 4.24407H58.3133V2.9178H58.4458V4.24407Z" fill="#29313C"/>
<path d="M57.9156 4.24407H57.7831V2.9178H57.9156V4.24407Z" fill="#29313C"/>
<path d="M57.2531 4.24407H57.1205V2.9178H57.2531V4.24407Z" fill="#29313C"/>
<path d="M60.2497 4.15857L60.1216 4.19254L59.7717 2.87068L59.8998 2.83672L60.2497 4.15857Z" fill="#29313C"/>
<path fill-rule="evenodd" clip-rule="evenodd" d="M63.7502 11.089V4.64196L61.4972 4.64196V11.089L63.7502 11.089ZM61.6298 10.9564V4.77459L63.6177 4.77459V10.9564L61.6298 10.9564Z" fill="#29313C"/>
<path d="M62.5575 5.52047H62.69V10.4328H62.5575V5.52047Z" fill="#29313C"/>
<path d="M63.2201 5.85394V5.98657H61.8948V5.85394H63.2201Z" fill="#29313C"/>
<path d="M63.2201 6.29857V6.4312H61.8948V6.29857H63.2201Z" fill="#29313C"/>
<path d="M63.2201 6.85435V6.98697H61.8948V6.85435H63.2201Z" fill="#29313C"/>
<path d="M63.2201 8.18822V8.32085H61.8948V8.18822H63.2201Z" fill="#29313C"/>
<path d="M63.2201 8.96632V9.09894H61.8948V8.96632H63.2201Z" fill="#29313C"/>
<path d="M63.2201 9.41094V9.54357H61.8948V9.41094H63.2201Z" fill="#29313C"/>
<path d="M63.2201 9.96673V10.0994H61.8948V9.96673H63.2201Z" fill="#29313C"/>
<path d="M63.1379 7.45291L63.1666 7.58239L61.8445 7.87615L61.8157 7.74667L63.1379 7.45291Z" fill="#29313C"/>
<path fill-rule="evenodd" clip-rule="evenodd" d="M55.7952 12.2017H52.2169V14.0585H55.7952V12.2017ZM52.3494 13.9259V12.3343H55.6626V13.9259H52.3494Z" fill="#29313C"/>
<path fill-rule="evenodd" clip-rule="evenodd" d="M44.6626 28.9128H34.8554V30.6369H44.6626V28.9128ZM44.5301 30.5043H34.9879V29.0454H44.5301V30.5043Z" fill="#29313C"/>
<path fill-rule="evenodd" clip-rule="evenodd" d="M43.735 29.4433H35.6506V30.1064H43.735V29.4433ZM43.6024 29.9738H35.7832V29.5759H43.6024V29.9738Z" fill="#29313C"/>
<path fill-rule="evenodd" clip-rule="evenodd" d="M31.176 29.4477L27.9066 30.9047L29.146 33.6909L32.4154 32.234L31.176 29.4477ZM32.2404 32.1668L29.2132 33.5158L28.0816 30.9719L31.1088 29.6228L32.2404 32.1668Z" fill="#29313C"/>
<path fill-rule="evenodd" clip-rule="evenodd" d="M31.176 29.4477L27.9066 30.9047L29.146 33.6909L32.4154 32.234L31.176 29.4477ZM32.2404 32.1668L29.2132 33.5158L28.0816 30.9719L31.1088 29.6228L32.2404 32.1668Z" fill="#29313C"/>
<path fill-rule="evenodd" clip-rule="evenodd" d="M31.7814 29.178L27.3012 31.1745L28.5406 33.9607L33.0207 31.9641L31.7814 29.178ZM32.8457 31.897L28.6078 33.7855L27.4762 31.2417L31.7142 29.3531L32.8457 31.897Z" fill="#29313C"/>
<path fill-rule="evenodd" clip-rule="evenodd" d="M31.1757 29.4477L27.9066 30.9045L28.3376 31.8735L31.6067 30.4167L31.1757 29.4477ZM31.4318 30.3496L28.4048 31.6984L28.0815 30.9717L31.1085 29.6228L31.4318 30.3496Z" fill="#29313C"/>
<path fill-rule="evenodd" clip-rule="evenodd" d="M35.5181 50.1331H39.0964V47.0827H35.5181V50.1331ZM38.9638 47.2153V50.0005H35.6506V47.2153H38.9638Z" fill="#29313C"/>
<path fill-rule="evenodd" clip-rule="evenodd" d="M35.5181 50.1331H39.0964V47.0827H35.5181V50.1331ZM38.9638 47.2153V50.0005H35.6506V47.2153H38.9638Z" fill="#29313C"/>
<path fill-rule="evenodd" clip-rule="evenodd" d="M34.8554 50.1331H39.759V47.0827H34.8554V50.1331ZM39.6265 47.2153V50.0005H34.988V47.2153H39.6265Z" fill="#29313C"/>
<path fill-rule="evenodd" clip-rule="evenodd" d="M35.5181 50.1331H39.0964V49.0721H35.5181V50.1331ZM38.9638 49.2047V50.0005H35.6506V49.2047H38.9638Z" fill="#29313C"/>
<path fill-rule="evenodd" clip-rule="evenodd" d="M26.241 43.5018V47.0827H29.2892V43.5018H26.241ZM29.1566 46.9501H26.3735V43.6344H29.1566V46.9501Z" fill="#29313C"/>
<path fill-rule="evenodd" clip-rule="evenodd" d="M26.241 40.0534V43.6344H29.2892V40.0534H26.241ZM29.1566 43.5018H26.3735V40.1861H29.1566V43.5018Z" fill="#29313C"/>
<path fill-rule="evenodd" clip-rule="evenodd" d="M26.241 36.6051V40.1861H29.2892V36.6051H26.241ZM29.1566 40.0534H26.3735V36.7378H29.1566V40.0534Z" fill="#29313C"/>
<path fill-rule="evenodd" clip-rule="evenodd" d="M26.241 36.6051V47.0827H29.2892V36.6051H26.241ZM29.1566 46.9501H26.3735V36.7378H29.1566V46.9501Z" fill="#29313C"/>
<path fill-rule="evenodd" clip-rule="evenodd" d="M26.241 35.942V47.7458H29.2892V35.942H26.241ZM29.1566 47.6132H26.3735V36.0746H29.1566V47.6132Z" fill="#29313C"/>
<path fill-rule="evenodd" clip-rule="evenodd" d="M26.241 43.5018V47.0827H27.3012V43.5018H26.241ZM27.1687 46.9501H26.3735V43.6344H27.1687V46.9501Z" fill="#29313C"/>
<path fill-rule="evenodd" clip-rule="evenodd" d="M26.241 40.0534V43.6344H27.3012V40.0534H26.241ZM27.1687 43.5018H26.3735V40.1861H27.1687V43.5018Z" fill="#29313C"/>
<path fill-rule="evenodd" clip-rule="evenodd" d="M26.241 36.6051V40.1861H27.3012V36.6051H26.241ZM27.1687 40.0534H26.3735V36.7378H27.1687V40.0534Z" fill="#29313C"/>
<path fill-rule="evenodd" clip-rule="evenodd" d="M48.7048 44.0986C48.7048 45.7833 50.0696 47.149 51.753 47.149C53.4365 47.149 54.8012 45.7833 54.8012 44.0986C54.8012 42.4139 53.4365 41.0481 51.753 41.0481C50.0696 41.0481 48.7048 42.4139 48.7048 44.0986ZM54.6687 44.0986C54.6687 45.71 53.3633 47.0164 51.753 47.0164C50.1428 47.0164 48.8374 45.71 48.8374 44.0986C48.8374 42.4871 50.1428 41.1808 51.753 41.1808C53.3633 41.1808 54.6687 42.4871 54.6687 44.0986Z" fill="#29313C"/>
<path fill-rule="evenodd" clip-rule="evenodd" d="M56.0914 40.3874L54.566 38.9133L53.2772 40.2489L54.8025 41.723L56.0914 40.3874ZM54.7992 41.5355L53.4646 40.2457L54.5693 39.1008L55.904 40.3907L54.7992 41.5355Z" fill="#29313C"/>
<path fill-rule="evenodd" clip-rule="evenodd" d="M56.2644 47.1293L54.739 48.6034L53.5422 47.3632L54.9722 45.9812L54.9722 45.9812L54.9722 45.9812L55.0676 45.889L56.2644 47.1293ZM54.9722 45.9812L55.1596 45.9844L55.0643 46.0766L54.9722 45.9812L54.9722 45.9812ZM53.7296 47.3664L55.0643 46.0766L56.077 47.126L54.7423 48.4159L53.7296 47.3664Z" fill="#29313C"/>
<path fill-rule="evenodd" clip-rule="evenodd" d="M56.988 44.9606V42.8386H55.2651V44.9606H56.988ZM55.3976 42.9712H56.8554V44.828H55.3976V42.9712Z" fill="#29313C"/>
<path fill-rule="evenodd" clip-rule="evenodd" d="M46.1205 45.516L47.0498 47.423L48.7308 46.6024L47.8015 44.6954L46.1205 45.516ZM47.7405 44.8727L48.5536 46.5414L47.1109 47.2457L46.2977 45.577L47.7405 44.8727Z" fill="#29313C"/>
<path fill-rule="evenodd" clip-rule="evenodd" d="M26.506 7.82502V9.94705H28.376V7.82502H26.506ZM28.2435 7.95764V9.81443H26.6386V7.95764H28.2435Z" fill="#29313C"/>
<path fill-rule="evenodd" clip-rule="evenodd" d="M26.506 4.11145V6.23348H28.376V4.11145H26.506ZM28.2435 4.24407V6.10086H26.6386V4.24407H28.2435Z" fill="#29313C"/>
<path fill-rule="evenodd" clip-rule="evenodd" d="M49.996 49.1818L52.096 49.4773L52.3172 47.9014L50.2172 47.6059L49.996 49.1818ZM52.1675 48.0143L51.9832 49.3275L50.1457 49.0689L50.33 47.7557L52.1675 48.0143Z" fill="#29313C"/>
<path fill-rule="evenodd" clip-rule="evenodd" d="M5.69879 49.0721H2.51807V51.3268H5.69879V49.0721ZM2.6506 51.1941V49.2047H5.56626V51.1941H2.6506Z" fill="#29313C"/>
<path fill-rule="evenodd" clip-rule="evenodd" d="M41.4819 7.69239V13.6606H43.7349V7.69239H41.4819ZM43.6024 13.528H41.6145V7.82501H43.6024V13.528Z" fill="#29313C"/>
<path fill-rule="evenodd" clip-rule="evenodd" d="M5.69879 2.51992H2.51807V4.77458H5.69879V2.51992ZM2.6506 4.64196V2.65255H5.56626V4.64196H2.6506Z" fill="#29313C"/>
<path fill-rule="evenodd" clip-rule="evenodd" d="M23.5904 49.0721H16.6988V51.3268H23.5904V49.0721ZM16.8313 51.1941V49.2047H23.4578V51.1941H16.8313Z" fill="#29313C"/>
<path fill-rule="evenodd" clip-rule="evenodd" d="M22.6626 2.51992H16.6988V4.77458H22.6626V2.51992ZM16.8313 4.64196V2.65255H22.5301V4.64196H16.8313Z" fill="#29313C"/>
<path fill-rule="evenodd" clip-rule="evenodd" d="M15.241 40.9818H7.28918V51.3268H15.241V40.9818ZM7.42171 51.1941V41.1145H15.1085V51.1941H7.42171Z" fill="#29313C"/>
<path fill-rule="evenodd" clip-rule="evenodd" d="M10.8675 48.9395H7.81927V50.9289H10.8675V48.9395ZM10.7349 50.7963H7.9518V49.0721H10.7349V50.7963Z" fill="#29313C"/>
<path fill-rule="evenodd" clip-rule="evenodd" d="M14.5783 48.9395H11.5302V50.9289H14.5783V48.9395ZM11.6627 50.7963V49.0721H14.4458V50.7963H11.6627Z" fill="#29313C"/>
<path fill-rule="evenodd" clip-rule="evenodd" d="M15.241 40.9818H7.28918V48.2763H15.241V40.9818ZM7.42171 48.1437V41.1145H15.1085V48.1437H7.42171Z" fill="#29313C"/>
<path fill-rule="evenodd" clip-rule="evenodd" d="M15.241 40.9818H7.28918V46.9501H15.241V40.9818ZM7.42171 46.8174V41.1145H15.1085V46.8174H7.42171Z" fill="#29313C"/>
<path fill-rule="evenodd" clip-rule="evenodd" d="M15.241 12.8649H7.28918V2.51992H15.241V12.8649ZM7.42171 2.65255V12.7322H15.1085V2.65255H7.42171Z" fill="#29313C"/>
<path fill-rule="evenodd" clip-rule="evenodd" d="M10.8675 4.90721H7.81927V2.9178H10.8675V4.90721ZM7.9518 3.05043V4.77458H10.7349V3.05043H7.9518Z" fill="#29313C"/>
<path fill-rule="evenodd" clip-rule="evenodd" d="M14.5783 4.90721H11.5302V2.9178H14.5783V4.90721ZM11.6627 3.05043V4.77458H14.4458V3.05043H11.6627Z" fill="#29313C"/>
<path fill-rule="evenodd" clip-rule="evenodd" d="M15.241 12.8649H7.28918V5.57035H15.241V12.8649ZM7.42171 5.70298V12.7322H15.1085V5.70298H7.42171Z" fill="#29313C"/>
<path fill-rule="evenodd" clip-rule="evenodd" d="M15.241 12.8649H7.28918V6.89662H15.241V12.8649ZM7.42171 7.02925V12.7322H15.1085V7.02925H7.42171Z" fill="#29313C"/>
<path fill-rule="evenodd" clip-rule="evenodd" d="M33.3976 18.8331V14.589H43.7349V18.8331H33.3976ZM43.6024 14.7216H33.5301V18.7005H43.6024V14.7216Z" fill="#29313C"/>
<path fill-rule="evenodd" clip-rule="evenodd" d="M41.3494 18.1699V15.1195H43.3374V18.1699H41.3494ZM43.2048 15.2521H41.482V18.0373H43.2048V15.2521Z" fill="#29313C"/>
<path fill-rule="evenodd" clip-rule="evenodd" d="M33.3976 18.8331V14.589H40.6867V18.8331H33.3976ZM40.5542 14.7216H33.5301V18.7005H40.5542V14.7216Z" fill="#29313C"/>
<path fill-rule="evenodd" clip-rule="evenodd" d="M33.3976 18.8331V14.589H39.3614V18.8331H33.3976ZM39.2289 14.7216H33.5301V18.7005H39.2289V14.7216Z" fill="#29313C"/>
<path fill-rule="evenodd" clip-rule="evenodd" d="M33.3976 6.76399V2.51992L43.7349 2.51992V6.76399L33.3976 6.76399ZM43.6024 2.65255L33.5301 2.65255V6.63137L43.6024 6.63137V2.65255Z" fill="#29313C"/>
<path fill-rule="evenodd" clip-rule="evenodd" d="M41.3494 6.10086V3.05043H43.3374V6.10086H41.3494ZM43.2048 3.18306H41.482V5.96823H43.2048V3.18306Z" fill="#29313C"/>
<path fill-rule="evenodd" clip-rule="evenodd" d="M33.3976 6.76399V2.51992L40.6867 2.51992V6.76399L33.3976 6.76399ZM40.5542 2.65255L33.5301 2.65255V6.63137H40.5542V2.65255Z" fill="#29313C"/>
<path fill-rule="evenodd" clip-rule="evenodd" d="M33.3976 6.76399V2.51992L39.3614 2.51992V6.76399H33.3976ZM39.2289 2.65255L33.5301 2.65255V6.63137H39.2289V2.65255Z" fill="#29313C"/>
<path fill-rule="evenodd" clip-rule="evenodd" d="M26.6386 2.51992H23.3253V11.1407H26.6386V2.51992ZM23.4578 11.0081V2.65255H26.506V11.0081H23.4578Z" fill="#29313C"/>
<path fill-rule="evenodd" clip-rule="evenodd" d="M7.88361 34.475H5.76312L5.76312 36.3463H7.88361V34.475ZM7.75107 36.2137H5.89565V34.6076H7.75107V36.2137Z" fill="#29313C"/>
<path fill-rule="evenodd" clip-rule="evenodd" d="M11.0716 34.6149V31.2992H2.45714V34.6149H11.0716ZM2.58967 34.4823V31.4318H10.9391V34.4823H2.58967Z" fill="#29313C"/>
<path fill-rule="evenodd" clip-rule="evenodd" d="M64.0121 28.3822H51.6868V31.5653H64.0121V28.3822ZM51.8193 31.4327V28.5149H63.8795V31.4327H51.8193Z" fill="#29313C"/>
</svg>
